<?xml version="1.0" encoding="UTF-8"?>
<!DOCTYPE svg PUBLIC "-//W3C//DTD SVG 1.1//EN" "http://www.w3.org/Graphics/SVG/1.1/DTD/svg11.dtd">
<svg version="1.2" width="260px" height="160px" viewBox="2817 7451 25000 7752" preserveAspectRatio="xMidYMid" fill-rule="evenodd" stroke-width="28.222" stroke-linejoin="round" xmlns="http://www.w3.org/2000/svg" xmlns:ooo="http://xml.openoffice.org/svg/export" xmlns:xlink="http://www.w3.org/1999/xlink" xmlns:presentation="http://sun.com/xmlns/staroffice/presentation" xmlns:smil="http://www.w3.org/2001/SMIL20/" xmlns:anim="urn:oasis:names:tc:opendocument:xmlns:animation:1.0" xml:space="preserve">
 <defs class="EmbeddedBulletChars">
  <g id="bullet-char-template-57356" transform="scale(0.00048828125,-0.00048828125)">
   <path d="M 580,1141 L 1163,571 580,0 -4,571 580,1141 Z"/>
  </g>
  <g id="bullet-char-template-57354" transform="scale(0.00048828125,-0.00048828125)">
   <path d="M 8,1128 L 1137,1128 1137,0 8,0 8,1128 Z"/>
  </g>
  <g id="bullet-char-template-10146" transform="scale(0.00048828125,-0.00048828125)">
   <path d="M 174,0 L 602,739 174,1481 1456,739 174,0 Z M 1358,739 L 309,1346 659,739 1358,739 Z"/>
  </g>
  <g id="bullet-char-template-10132" transform="scale(0.00048828125,-0.00048828125)">
   <path d="M 2015,739 L 1276,0 717,0 1260,543 174,543 174,936 1260,936 717,1481 1274,1481 2015,739 Z"/>
  </g>
  <g id="bullet-char-template-10007" transform="scale(0.00048828125,-0.00048828125)">
   <path d="M 0,-2 C -7,14 -16,27 -25,37 L 356,567 C 262,823 215,952 215,954 215,979 228,992 255,992 264,992 276,990 289,987 310,991 331,999 354,1012 L 381,999 492,748 772,1049 836,1024 860,1049 C 881,1039 901,1025 922,1006 886,937 835,863 770,784 769,783 710,716 594,584 L 774,223 C 774,196 753,168 711,139 L 727,119 C 717,90 699,76 672,76 641,76 570,178 457,381 L 164,-76 C 142,-110 111,-127 72,-127 30,-127 9,-110 8,-76 1,-67 -2,-52 -2,-32 -2,-23 -1,-13 0,-2 Z"/>
  </g>
  <g id="bullet-char-template-10004" transform="scale(0.00048828125,-0.00048828125)">
   <path d="M 285,-33 C 182,-33 111,30 74,156 52,228 41,333 41,471 41,549 55,616 82,672 116,743 169,778 240,778 293,778 328,747 346,684 L 369,508 C 377,444 397,411 428,410 L 1163,1116 C 1174,1127 1196,1133 1229,1133 1271,1133 1292,1118 1292,1087 L 1292,965 C 1292,929 1282,901 1262,881 L 442,47 C 390,-6 338,-33 285,-33 Z"/>
  </g>
  <g id="bullet-char-template-9679" transform="scale(0.00048828125,-0.00048828125)">
   <path d="M 813,0 C 632,0 489,54 383,161 276,268 223,411 223,592 223,773 276,916 383,1023 489,1130 632,1184 813,1184 992,1184 1136,1130 1245,1023 1353,916 1407,772 1407,592 1407,412 1353,268 1245,161 1136,54 992,0 813,0 Z"/>
  </g>
  <g id="bullet-char-template-8226" transform="scale(0.00048828125,-0.00048828125)">
   <path d="M 346,457 C 273,457 209,483 155,535 101,586 74,649 74,723 74,796 101,859 155,911 209,963 273,989 346,989 419,989 480,963 531,910 582,859 608,796 608,723 608,648 583,586 532,535 482,483 420,457 346,457 Z"/>
  </g>
  <g id="bullet-char-template-8211" transform="scale(0.00048828125,-0.00048828125)">
   <path d="M -4,459 L 1135,459 1135,606 -4,606 -4,459 Z"/>
  </g>
  <g id="bullet-char-template-61548" transform="scale(0.00048828125,-0.00048828125)">
   <path d="M 173,740 C 173,903 231,1043 346,1159 462,1274 601,1332 765,1332 928,1332 1067,1274 1183,1159 1299,1043 1357,903 1357,740 1357,577 1299,437 1183,322 1067,206 928,148 765,148 601,148 462,206 346,322 231,437 173,577 173,740 Z"/>
  </g>
 </defs>
 <g class="Page">
  <g class="Group">
   <g class="com.sun.star.drawing.PolyPolygonShape">
    <g id="id3">
     <rect class="BoundingBox" stroke="none" fill="none" x="9501" y="8985" width="2160" height="2520"/>
     <path fill="rgb(102,102,102)" stroke="none" d="M 11660,11504 L 10976,11504 10976,10477 10185,10477 10185,11504 9501,11504 9501,8986 10185,8986 10185,9919 10976,9919 10976,8986 11660,8986 11660,11504 Z"/>
    </g>
   </g>
   <g class="com.sun.star.drawing.PolyPolygonShape">
    <g id="id4">
     <rect class="BoundingBox" stroke="none" fill="none" x="12078" y="9517" width="1886" height="2022"/>
     <path fill="rgb(102,102,102)" stroke="none" d="M 13105,11538 L 12986,11534 12875,11522 12770,11502 12672,11473 12625,11456 12581,11437 12538,11415 12496,11392 12457,11367 12419,11340 12382,11310 12348,11279 12315,11246 12285,11211 12256,11174 12230,11135 12206,11095 12183,11054 12163,11010 12146,10965 12130,10918 12116,10869 12095,10766 12082,10657 12078,10541 12082,10421 12094,10308 12113,10202 12141,10104 12157,10058 12176,10013 12196,9970 12219,9929 12243,9889 12269,9852 12298,9816 12328,9782 12360,9750 12394,9720 12429,9692 12466,9667 12505,9643 12545,9621 12587,9601 12631,9584 12677,9568 12724,9555 12823,9534 12929,9522 13041,9518 13148,9521 13249,9532 13344,9550 13432,9575 13474,9591 13514,9608 13553,9627 13590,9647 13625,9670 13659,9694 13692,9720 13722,9748 13752,9777 13779,9808 13804,9841 13828,9875 13849,9911 13869,9949 13887,9988 13903,10028 13929,10114 13948,10207 13959,10305 13963,10410 13963,10710 12759,10710 12762,10749 12769,10787 12773,10805 12779,10822 12785,10839 12792,10856 12800,10871 12809,10887 12818,10901 12829,10915 12840,10929 12852,10942 12865,10954 12878,10966 12893,10977 12908,10988 12924,10998 12940,11007 12974,11023 13012,11036 13051,11046 13094,11053 13138,11058 13186,11059 13273,11057 13356,11051 13436,11040 13512,11026 13550,11016 13588,11006 13668,10980 13750,10949 13835,10911 13835,11395 13795,11414 13755,11432 13715,11449 13674,11463 13633,11477 13592,11488 13550,11498 13508,11507 13419,11521 13323,11530 13218,11536 13105,11538 Z M 13065,9976 L 13036,9977 13008,9981 12982,9987 12956,9995 12932,10005 12909,10018 12887,10033 12866,10051 12857,10061 12847,10071 12839,10082 12830,10094 12823,10106 12816,10119 12803,10147 12792,10178 12783,10211 12777,10247 12772,10286 13351,10286 13349,10252 13345,10219 13338,10188 13329,10159 13318,10132 13305,10106 13297,10094 13289,10082 13280,10071 13271,10060 13261,10050 13251,10041 13240,10032 13229,10023 13218,10016 13206,10009 13194,10003 13181,9997 13168,9992 13155,9988 13141,9984 13127,9981 13097,9977 13065,9976 Z"/>
    </g>
   </g>
   <g class="com.sun.star.drawing.PolyPolygonShape">
    <g id="id5">
     <rect class="BoundingBox" stroke="none" fill="none" x="14342" y="8823" width="676" height="2682"/>
     <path fill="rgb(102,102,102)" stroke="none" d="M 15016,11504 L 14343,11504 14343,8824 15016,8824 15016,11504 Z"/>
    </g>
   </g>
   <g class="com.sun.star.drawing.PolyPolygonShape">
    <g id="id6">
     <rect class="BoundingBox" stroke="none" fill="none" x="15481" y="9517" width="1887" height="2835"/>
     <path fill="rgb(102,102,102)" stroke="none" d="M 16653,11538 L 16616,11537 16581,11535 16546,11531 16513,11526 16480,11519 16448,11510 16417,11500 16388,11489 16358,11475 16329,11459 16300,11441 16271,11420 16242,11397 16213,11371 16184,11343 16155,11312 16124,11312 16147,11479 16153,11533 16155,11552 16155,11567 16155,12351 15482,12351 15482,9552 16029,9552 16124,9800 16155,9800 16179,9766 16204,9734 16231,9704 16258,9676 16286,9651 16316,9628 16347,9607 16379,9588 16412,9571 16446,9557 16481,9545 16517,9535 16555,9527 16593,9522 16633,9518 16674,9517 16714,9518 16752,9521 16790,9527 16827,9534 16862,9543 16897,9555 16930,9569 16963,9584 16994,9602 17024,9622 17053,9644 17081,9668 17108,9695 17134,9723 17158,9753 17182,9786 17225,9856 17262,9933 17294,10016 17320,10105 17340,10200 17355,10301 17363,10409 17366,10523 17363,10638 17354,10747 17339,10849 17318,10945 17291,11035 17258,11118 17219,11196 17174,11267 17150,11300 17124,11330 17097,11359 17069,11385 17041,11410 17011,11432 16980,11452 16948,11470 16915,11486 16880,11500 16845,11511 16809,11521 16772,11528 16733,11534 16694,11537 16653,11538 Z M 16427,10046 L 16392,10048 16375,10050 16359,10053 16343,10056 16329,10061 16315,10066 16301,10072 16289,10080 16277,10087 16266,10096 16255,10106 16245,10116 16236,10127 16227,10139 16220,10152 16206,10180 16193,10211 16183,10246 16174,10284 16167,10324 16161,10369 16157,10416 16155,10466 16155,10520 16156,10581 16159,10637 16165,10689 16172,10737 16181,10780 16193,10819 16207,10853 16214,10869 16222,10883 16231,10897 16240,10910 16250,10921 16261,10932 16272,10942 16284,10952 16296,10960 16309,10967 16322,10974 16337,10980 16351,10984 16367,10988 16383,10991 16399,10994 16416,10995 16434,10995 16450,10995 16465,10994 16480,10992 16494,10988 16508,10985 16521,10980 16534,10974 16546,10968 16557,10960 16568,10952 16578,10943 16588,10933 16598,10922 16606,10910 16614,10898 16622,10884 16629,10870 16636,10854 16648,10820 16658,10780 16666,10737 16672,10688 16677,10636 16680,10578 16681,10516 16680,10456 16677,10400 16672,10348 16666,10300 16658,10257 16648,10219 16636,10185 16629,10170 16622,10155 16614,10142 16606,10130 16597,10118 16588,10108 16578,10098 16567,10089 16556,10081 16544,10073 16532,10067 16518,10061 16505,10057 16490,10053 16476,10050 16460,10048 16444,10046 16427,10046 Z"/>
    </g>
   </g>
   <g class="com.sun.star.drawing.PolyPolygonShape">
    <g id="id7">
     <rect class="BoundingBox" stroke="none" fill="none" x="17790" y="8985" width="2870" height="2520"/>
     <path fill="rgb(102,102,102)" stroke="none" d="M 18888,11504 L 18372,9690 18357,9690 18384,10102 18391,10269 18393,10410 18393,11504 17790,11504 17790,8986 18696,8986 19222,10774 19235,10774 19751,8986 20658,8986 20658,11504 20033,11504 20033,10400 20036,10209 20059,9694 20043,9694 19535,11504 18888,11504 Z"/>
    </g>
   </g>
   <g class="com.sun.star.drawing.PolyPolygonShape">
    <g id="id8">
     <rect class="BoundingBox" stroke="none" fill="none" x="21144" y="8767" width="719" height="2738"/>
     <path fill="rgb(102,102,102)" stroke="none" d="M 21836,11504 L 21162,11504 21162,9552 21836,9552 21836,11504 Z M 21145,9067 L 21146,9030 21150,8996 21157,8964 21161,8949 21166,8935 21171,8921 21178,8908 21185,8895 21192,8883 21201,8872 21209,8861 21219,8851 21229,8841 21240,8832 21252,8824 21264,8816 21278,8809 21292,8802 21307,8796 21339,8786 21375,8777 21414,8772 21456,8768 21501,8767 21547,8768 21589,8772 21628,8778 21664,8786 21696,8797 21712,8803 21726,8810 21739,8817 21752,8825 21764,8834 21775,8843 21786,8853 21795,8863 21805,8874 21813,8885 21821,8897 21828,8910 21834,8923 21840,8937 21845,8951 21849,8966 21856,8997 21860,9031 21861,9067 21860,9103 21856,9136 21849,9167 21839,9196 21826,9223 21811,9247 21792,9269 21771,9289 21747,9306 21721,9321 21691,9334 21659,9344 21624,9353 21586,9358 21545,9362 21501,9363 21458,9362 21418,9358 21380,9353 21345,9344 21313,9334 21284,9321 21258,9306 21234,9289 21213,9269 21195,9247 21180,9223 21167,9196 21157,9167 21150,9136 21146,9103 21145,9067 Z"/>
    </g>
   </g>
   <g class="com.sun.star.drawing.PolyPolygonShape">
    <g id="id9">
     <rect class="BoundingBox" stroke="none" fill="none" x="22305" y="9518" width="1907" height="1987"/>
     <path fill="rgb(102,102,102)" stroke="none" d="M 23537,11504 L 23537,10440 23536,10392 23534,10348 23529,10307 23523,10269 23515,10234 23506,10201 23494,10172 23481,10146 23474,10134 23466,10123 23458,10112 23449,10103 23440,10094 23430,10085 23419,10078 23408,10072 23397,10066 23385,10061 23372,10056 23359,10053 23345,10050 23331,10048 23316,10047 23301,10047 23280,10047 23260,10049 23241,10052 23222,10055 23204,10060 23187,10066 23170,10073 23154,10081 23139,10090 23125,10100 23112,10111 23099,10123 23087,10137 23075,10151 23065,10166 23055,10183 23046,10201 23037,10220 23022,10263 23009,10312 22998,10368 22990,10429 22984,10496 22980,10570 22979,10650 22979,11504 22306,11504 22306,9552 22814,9552 22898,9794 22938,9794 22960,9760 22985,9729 23012,9700 23040,9673 23071,9648 23104,9626 23139,9605 23176,9587 23215,9571 23255,9557 23297,9545 23340,9535 23385,9528 23431,9522 23478,9519 23527,9518 23606,9521 23680,9530 23750,9544 23783,9554 23815,9565 23846,9577 23876,9591 23904,9607 23932,9624 23958,9642 23984,9662 24008,9683 24031,9706 24053,9730 24073,9755 24092,9782 24110,9809 24126,9838 24140,9868 24154,9899 24166,9932 24185,10000 24200,10074 24208,10152 24211,10235 24211,11504 23537,11504 Z"/>
    </g>
   </g>
   <g class="com.sun.star.drawing.PolyPolygonShape">
    <g id="id10">
     <rect class="BoundingBox" stroke="none" fill="none" x="24583" y="8823" width="1890" height="2716"/>
     <path fill="rgb(102,102,102)" stroke="none" d="M 25274,11538 L 25223,11536 25173,11531 25125,11521 25079,11508 25034,11492 24991,11471 24949,11447 24910,11419 24872,11388 24836,11353 24803,11314 24771,11272 24742,11227 24715,11178 24691,11125 24668,11069 24648,11011 24631,10949 24616,10885 24604,10819 24595,10751 24588,10680 24584,10606 24583,10530 24586,10415 24595,10305 24610,10203 24631,10107 24658,10017 24691,9933 24730,9857 24751,9821 24774,9786 24799,9754 24824,9723 24851,9695 24879,9669 24908,9644 24938,9622 24969,9602 25001,9585 25035,9569 25069,9555 25105,9544 25142,9534 25179,9527 25218,9522 25259,9518 25300,9517 25340,9518 25379,9522 25417,9527 25453,9534 25489,9543 25522,9554 25555,9568 25587,9583 25617,9601 25647,9621 25676,9645 25704,9671 25732,9700 25759,9731 25786,9766 25811,9803 25825,9803 25811,9689 25801,9574 25794,9460 25792,9345 25792,8823 26471,8823 26471,11503 25963,11503 25818,11257 25792,11257 25770,11291 25746,11323 25721,11353 25695,11380 25667,11405 25638,11428 25608,11449 25576,11468 25543,11484 25508,11498 25473,11511 25436,11520 25397,11528 25357,11534 25316,11537 25274,11538 Z M 25550,11006 L 25589,11004 25625,10999 25641,10996 25658,10991 25673,10986 25688,10980 25701,10974 25715,10966 25727,10958 25739,10949 25750,10939 25760,10928 25769,10916 25778,10904 25786,10891 25793,10877 25807,10846 25819,10812 25829,10775 25837,10734 25843,10690 25847,10642 25849,10591 25849,10537 25848,10475 25845,10417 25839,10364 25831,10316 25820,10272 25808,10233 25800,10216 25793,10199 25784,10184 25775,10169 25766,10156 25755,10144 25744,10132 25733,10122 25721,10112 25708,10103 25694,10095 25680,10087 25665,10081 25650,10075 25633,10071 25617,10067 25599,10064 25581,10062 25543,10060 25526,10060 25510,10062 25495,10064 25480,10068 25466,10072 25452,10078 25438,10084 25425,10091 25412,10100 25400,10109 25388,10119 25377,10130 25366,10142 25356,10156 25346,10170 25337,10185 25320,10218 25305,10254 25292,10293 25282,10336 25274,10382 25268,10432 25265,10485 25264,10541 25265,10596 25268,10648 25274,10696 25282,10741 25293,10782 25305,10821 25320,10855 25329,10872 25338,10887 25347,10901 25357,10915 25368,10927 25379,10939 25390,10950 25402,10959 25415,10968 25428,10976 25441,10983 25455,10989 25470,10994 25485,10998 25500,11002 25516,11004 25533,11005 25550,11006 Z"/>
    </g>
   </g>
  </g>
  <g class="Group">
   <g class="com.sun.star.drawing.ClosedBezierShape">
    <g id="id11">
     <rect class="BoundingBox" stroke="none" fill="none" x="2817" y="7451" width="6236" height="7752"/>
     <path fill="rgb(102,102,102)" stroke="none" d="M 8778,11935 C 8378,11935 7978,11935 7578,11935 7306,12207 7035,12478 6763,12750 6708,12806 6613,12766 6613,12688 6613,12407 6613,12125 6613,11844 5911,11610 5403,10948 5403,10165 5403,9189 6196,8396 7173,8396 7658,8396 8142,8396 8627,8396 8128,7866 7439,7513 6672,7459 4992,7340 3583,8610 3476,10237 3473,10265 3471,10293 3468,10320 3468,10591 3368,11011 3242,11251 3109,11503 2973,11750 2859,11926 2748,12098 2872,12324 3076,12324 3206,12324 3336,12324 3467,12324 3467,12802 3467,13280 3467,13757 3467,14048 3701,14282 3991,14282 4264,14282 4536,14282 4809,14282 4809,14522 4809,14763 4809,15003 4809,15114 4900,15198 5004,15201 5007,15201 5010,15201 5013,15201 5032,15201 5052,15197 5072,15191 6219,14800 7366,14409 8512,14019 8632,13977 8713,13866 8713,13738 8713,13290 8713,12842 8713,12394 8841,12246 8953,12085 9051,11915 8962,11926 8871,11935 8778,11935 Z"/>
    </g>
   </g>
  </g>
  <g class="Group">
   <g class="com.sun.star.drawing.ClosedBezierShape">
    <g id="id12">
     <rect class="BoundingBox" stroke="none" fill="none" x="6123" y="8987" width="2929" height="2563"/>
     <path fill="rgb(21,132,102)" stroke="none" d="M 7573,9398 C 7764,9199 7896,9028 8190,8993 8743,8930 9251,9497 8971,10052 8965,10063 8960,10075 8953,10086 8888,10198 8812,10299 8727,10393 8727,10388 8727,10384 8727,10377 8490,10377 8252,10377 8013,10377 8004,10386 7995,10395 7986,10404 7948,10444 7910,10485 7871,10523 7793,10373 7715,10222 7636,10072 7612,10021 7585,9972 7558,9922 7533,9972 7509,10023 7482,10075 7412,10218 7341,10361 7271,10505 7199,10404 7130,10301 7061,10200 7034,10164 7009,10128 6984,10093 6962,10128 6940,10166 6917,10205 6884,10256 6850,10310 6816,10361 6673,10361 6530,10361 6386,10361 6236,10160 6133,9940 6124,9705 6108,9270 6451,8993 6845,8997 7197,9002 7345,9174 7573,9400 7573,9398 7573,9398 7573,9398 Z M 8586,10550 C 8575,10561 8564,10572 8552,10583 8239,10910 7896,11228 7573,11549 7235,11222 6825,10877 6523,10534 6653,10534 6783,10534 6915,10534 6924,10520 6933,10507 6942,10491 6960,10462 6978,10431 6996,10399 7069,10507 7143,10615 7217,10720 7244,10760 7271,10800 7300,10839 7320,10796 7341,10753 7363,10711 7428,10574 7495,10435 7562,10296 7634,10433 7706,10570 7775,10706 7795,10742 7813,10778 7831,10814 7860,10787 7887,10758 7914,10729 7972,10671 8028,10612 8084,10552 8252,10552 8420,10552 8586,10550 Z"/>
    </g>
   </g>
  </g>
  <g class="Group">
   <g class="com.sun.star.drawing.ClosedBezierShape">
    <g id="id13">
     <rect class="BoundingBox" stroke="none" fill="none" x="16499" y="12118" width="344" height="501"/>
     <path fill="rgb(21,132,102)" stroke="none" d="M 16841,12477 C 16841,12522 16824,12557 16791,12581 16758,12605 16711,12617 16650,12617 16587,12617 16537,12607 16501,12587 L 16501,12519 C 16524,12531 16549,12540 16576,12547 16602,12554 16628,12557 16652,12557 16690,12557 16720,12551 16740,12539 16761,12527 16771,12508 16771,12483 16771,12465 16763,12449 16746,12435 16730,12422 16699,12406 16651,12388 16607,12371 16575,12357 16556,12344 16537,12332 16523,12318 16514,12302 16504,12286 16500,12267 16500,12245 16500,12206 16516,12175 16548,12152 16580,12130 16623,12118 16679,12118 16731,12118 16782,12129 16831,12150 L 16805,12209 C 16757,12189 16713,12179 16674,12179 16639,12179 16613,12185 16596,12196 16578,12207 16569,12221 16569,12240 16569,12253 16573,12264 16579,12273 16586,12283 16596,12291 16611,12299 16626,12308 16654,12319 16695,12335 16752,12356 16791,12377 16811,12398 16831,12419 16841,12445 16841,12477 Z"/>
    </g>
   </g>
   <g class="com.sun.star.drawing.ClosedBezierShape">
    <g id="id14">
     <rect class="BoundingBox" stroke="none" fill="none" x="16926" y="12119" width="388" height="500"/>
     <path fill="rgb(21,132,102)" stroke="none" d="M 17259,12608 L 17244,12540 17241,12540 C 17217,12570 17193,12591 17169,12601 17145,12612 17115,12617 17080,12617 17032,12617 16994,12605 16967,12580 16940,12556 16927,12521 16927,12475 16927,12378 17004,12327 17160,12323 L 17242,12320 17242,12290 C 17242,12252 17234,12224 17217,12206 17201,12188 17175,12179 17139,12179 17099,12179 17054,12192 17003,12216 L 16981,12161 C 17004,12148 17030,12138 17059,12130 17087,12123 17115,12119 17144,12119 17201,12119 17244,12132 17271,12157 17299,12183 17313,12224 17313,12280 L 17313,12608 17259,12608 Z M 17094,12557 C 17139,12557 17175,12545 17201,12520 17227,12495 17240,12460 17240,12415 L 17240,12372 17167,12375 C 17109,12377 17067,12386 17042,12402 17016,12418 17003,12443 17003,12476 17003,12503 17011,12523 17027,12536 17043,12550 17065,12557 17094,12557 Z"/>
    </g>
   </g>
   <g class="com.sun.star.drawing.ClosedBezierShape">
    <g id="id15">
     <rect class="BoundingBox" stroke="none" fill="none" x="17454" y="11919" width="405" height="700"/>
     <path fill="rgb(21,132,102)" stroke="none" d="M 17529,12127 L 17529,12439 C 17529,12479 17537,12508 17555,12527 17573,12547 17601,12556 17639,12556 17690,12556 17726,12542 17750,12515 17773,12487 17785,12442 17785,12380 L 17785,12127 17858,12127 17858,12608 17797,12608 17787,12544 17783,12544 C 17768,12568 17747,12586 17721,12598 17694,12611 17664,12617 17630,12617 17571,12617 17528,12603 17498,12576 17469,12548 17455,12503 17455,12442 L 17455,12127 17529,12127 Z M 17605,12052 C 17619,12034 17634,12012 17650,11987 17667,11961 17680,11938 17689,11919 L 17778,11919 17778,11929 C 17765,11948 17746,11971 17720,11999 17695,12027 17673,12048 17654,12063 L 17605,12063 17605,12052 Z"/>
    </g>
   </g>
   <g class="com.sun.star.drawing.ClosedBezierShape">
    <g id="id16">
     <rect class="BoundingBox" stroke="none" fill="none" x="17985" y="11925" width="426" height="694"/>
     <path fill="rgb(21,132,102)" stroke="none" d="M 18340,12544 L 18336,12544 C 18303,12593 18252,12617 18185,12617 18122,12617 18073,12596 18038,12553 18003,12510 17986,12448 17986,12369 17986,12290 18003,12228 18038,12184 18074,12140 18123,12118 18185,12118 18251,12118 18301,12142 18335,12190 L 18341,12190 18338,12155 18336,12121 18336,11925 18409,11925 18409,12608 18350,12608 18340,12544 Z M 18194,12556 C 18244,12556 18280,12543 18303,12516 18325,12489 18336,12445 18336,12385 L 18336,12369 C 18336,12301 18325,12252 18302,12223 18280,12194 18243,12179 18194,12179 18151,12179 18118,12196 18095,12229 18073,12263 18061,12309 18061,12370 18061,12432 18073,12478 18095,12509 18118,12541 18151,12556 18194,12556 Z"/>
    </g>
   </g>
   <g class="com.sun.star.drawing.ClosedBezierShape">
    <g id="id17">
     <rect class="BoundingBox" stroke="none" fill="none" x="18536" y="12118" width="410" height="501"/>
     <path fill="rgb(21,132,102)" stroke="none" d="M 18767,12617 C 18696,12617 18640,12596 18599,12552 18557,12509 18537,12449 18537,12372 18537,12294 18556,12233 18594,12187 18632,12141 18684,12118 18748,12118 18809,12118 18856,12138 18891,12178 18927,12217 18944,12270 18944,12335 L 18944,12381 18612,12381 C 18614,12437 18628,12480 18655,12510 18682,12539 18721,12554 18770,12554 18822,12554 18873,12543 18924,12521 L 18924,12586 C 18898,12597 18873,12605 18850,12610 18827,12615 18800,12617 18767,12617 Z M 18747,12179 C 18709,12179 18678,12192 18655,12217 18632,12242 18618,12277 18614,12321 L 18866,12321 C 18866,12276 18856,12240 18835,12216 18815,12192 18785,12179 18747,12179 Z"/>
    </g>
   </g>
   <g class="com.sun.star.drawing.ClosedBezierShape">
    <g id="id18">
     <rect class="BoundingBox" stroke="none" fill="none" x="19301" y="12118" width="689" height="492"/>
     <path fill="rgb(21,132,102)" stroke="none" d="M 19916,12609 L 19916,12296 C 19916,12257 19907,12228 19891,12209 19875,12190 19849,12180 19815,12180 19769,12180 19736,12194 19714,12220 19692,12246 19681,12286 19681,12340 L 19681,12609 19609,12609 19609,12296 C 19609,12257 19600,12228 19584,12209 19568,12190 19542,12180 19507,12180 19461,12180 19428,12194 19407,12222 19385,12249 19375,12294 19375,12356 L 19375,12609 19302,12609 19302,12127 19361,12127 19373,12193 19377,12193 C 19390,12170 19410,12151 19435,12138 19460,12125 19488,12119 19519,12119 19594,12119 19643,12146 19667,12200 L 19670,12200 C 19684,12175 19705,12155 19732,12141 19760,12126 19791,12119 19826,12119 19880,12119 19921,12133 19948,12160 19975,12188 19989,12233 19989,12295 L 19989,12609 19916,12609 Z"/>
    </g>
   </g>
   <g class="com.sun.star.drawing.ClosedBezierShape">
    <g id="id19">
     <rect class="BoundingBox" stroke="none" fill="none" x="20113" y="12118" width="410" height="501"/>
     <path fill="rgb(21,132,102)" stroke="none" d="M 20344,12617 C 20273,12617 20217,12596 20176,12552 20134,12509 20114,12449 20114,12372 20114,12294 20133,12233 20171,12187 20209,12141 20261,12118 20325,12118 20386,12118 20433,12138 20468,12178 20504,12217 20521,12270 20521,12335 L 20521,12381 20189,12381 C 20191,12437 20205,12480 20232,12510 20259,12539 20297,12554 20347,12554 20399,12554 20450,12543 20500,12521 L 20500,12586 C 20475,12597 20450,12605 20427,12610 20404,12615 20377,12617 20344,12617 Z M 20324,12179 C 20286,12179 20255,12192 20232,12217 20209,12242 20195,12277 20191,12321 L 20443,12321 C 20443,12276 20433,12240 20412,12216 20392,12192 20362,12179 20324,12179 Z"/>
    </g>
   </g>
   <g class="com.sun.star.drawing.ClosedBezierShape">
    <g id="id20">
     <rect class="BoundingBox" stroke="none" fill="none" x="20645" y="12118" width="404" height="492"/>
     <path fill="rgb(21,132,102)" stroke="none" d="M 20975,12609 L 20975,12297 C 20975,12258 20966,12229 20948,12209 20930,12190 20902,12180 20864,12180 20813,12180 20777,12194 20753,12221 20730,12249 20718,12294 20718,12356 L 20718,12609 20645,12609 20645,12127 20704,12127 20716,12193 20720,12193 C 20735,12169 20756,12151 20783,12138 20809,12125 20840,12119 20873,12119 20931,12119 20974,12133 21004,12160 21033,12188 21047,12233 21047,12295 L 21047,12609 20975,12609 Z"/>
    </g>
   </g>
   <g class="com.sun.star.drawing.ClosedBezierShape">
    <g id="id21">
     <rect class="BoundingBox" stroke="none" fill="none" x="21133" y="12015" width="288" height="604"/>
     <path fill="rgb(21,132,102)" stroke="none" d="M 21353,12557 C 21366,12557 21378,12556 21390,12554 21403,12552 21412,12550 21419,12548 L 21419,12604 C 21411,12608 21400,12611 21384,12614 21369,12616 21355,12617 21343,12617 21249,12617 21203,12568 21203,12470 L 21203,12184 21134,12184 21134,12149 21203,12118 21234,12015 21276,12015 21276,12127 21416,12127 21416,12184 21276,12184 21276,12467 C 21276,12496 21283,12518 21296,12534 21310,12549 21329,12557 21353,12557 Z"/>
    </g>
   </g>
   <g class="com.sun.star.drawing.ClosedBezierShape">
    <g id="id22">
     <rect class="BoundingBox" stroke="none" fill="none" x="21478" y="12119" width="389" height="500"/>
     <path fill="rgb(21,132,102)" stroke="none" d="M 21811,12608 L 21797,12540 21793,12540 C 21769,12570 21745,12591 21721,12601 21697,12612 21668,12617 21632,12617 21584,12617 21547,12605 21520,12580 21493,12556 21479,12521 21479,12475 21479,12378 21557,12327 21712,12323 L 21794,12320 21794,12290 C 21794,12252 21786,12224 21770,12206 21753,12188 21727,12179 21692,12179 21651,12179 21606,12192 21555,12216 L 21533,12161 C 21557,12148 21583,12138 21611,12130 21639,12123 21668,12119 21696,12119 21753,12119 21796,12132 21824,12157 21851,12183 21865,12224 21865,12280 L 21865,12608 21811,12608 Z M 21646,12557 C 21692,12557 21727,12545 21753,12520 21779,12495 21792,12460 21792,12415 L 21792,12372 21719,12375 C 21661,12377 21619,12386 21594,12402 21568,12418 21555,12443 21555,12476 21555,12503 21563,12523 21579,12536 21595,12550 21618,12557 21646,12557 Z"/>
    </g>
   </g>
   <g class="com.sun.star.drawing.ClosedBezierShape">
    <g id="id23">
     <rect class="BoundingBox" stroke="none" fill="none" x="22012" y="11925" width="75" height="685"/>
     <path fill="rgb(21,132,102)" stroke="none" d="M 22085,12609 C 22061,12609 22037,12609 22012,12609 22012,12381 22012,12153 22012,11925 22037,11925 22061,11925 22085,11925 22085,12153 22085,12381 22085,12609 Z"/>
    </g>
   </g>
   <g class="com.sun.star.drawing.ClosedBezierShape">
    <g id="id24">
     <rect class="BoundingBox" stroke="none" fill="none" x="22447" y="12118" width="409" height="501"/>
     <path fill="rgb(21,132,102)" stroke="none" d="M 22678,12617 C 22606,12617 22550,12596 22509,12552 22468,12509 22447,12449 22447,12372 22447,12294 22467,12233 22505,12187 22543,12141 22594,12118 22659,12118 22719,12118 22767,12138 22802,12178 22837,12217 22855,12270 22855,12335 L 22855,12381 22523,12381 C 22524,12437 22539,12480 22566,12510 22593,12539 22631,12554 22680,12554 22732,12554 22783,12543 22834,12521 L 22834,12586 C 22808,12597 22784,12605 22761,12610 22738,12615 22710,12617 22678,12617 Z M 22658,12179 C 22619,12179 22588,12192 22565,12217 22542,12242 22529,12277 22525,12321 L 22776,12321 C 22776,12276 22766,12240 22746,12216 22725,12192 22696,12179 22658,12179 Z"/>
    </g>
   </g>
   <g class="com.sun.star.drawing.ClosedBezierShape">
    <g id="id25">
     <rect class="BoundingBox" stroke="none" fill="none" x="22947" y="12118" width="344" height="501"/>
     <path fill="rgb(21,132,102)" stroke="none" d="M 23289,12477 C 23289,12522 23272,12557 23239,12581 23206,12605 23159,12617 23099,12617 23035,12617 22985,12607 22949,12587 L 22949,12519 C 22972,12531 22997,12540 23024,12547 23050,12554 23076,12557 23100,12557 23138,12557 23168,12551 23188,12539 23209,12527 23219,12508 23219,12483 23219,12465 23211,12449 23195,12435 23178,12422 23147,12406 23099,12388 23055,12371 23023,12357 23004,12344 22985,12332 22971,12318 22962,12302 22952,12286 22948,12267 22948,12245 22948,12206 22964,12175 22996,12152 23028,12130 23071,12118 23127,12118 23179,12118 23230,12129 23279,12150 L 23253,12209 C 23205,12189 23161,12179 23122,12179 23087,12179 23061,12185 23044,12196 23026,12207 23017,12221 23017,12240 23017,12253 23021,12264 23027,12273 23034,12283 23044,12291 23059,12299 23074,12308 23102,12319 23143,12335 23200,12356 23239,12377 23259,12398 23279,12419 23289,12445 23289,12477 Z"/>
    </g>
   </g>
   <g class="com.sun.star.drawing.ClosedBezierShape">
    <g id="id26">
     <rect class="BoundingBox" stroke="none" fill="none" x="23347" y="12015" width="287" height="604"/>
     <path fill="rgb(21,132,102)" stroke="none" d="M 23566,12557 C 23579,12557 23592,12556 23604,12554 23616,12552 23625,12550 23632,12548 L 23632,12604 C 23624,12608 23613,12611 23597,12614 23582,12616 23568,12617 23556,12617 23463,12617 23416,12568 23416,12470 L 23416,12184 23347,12184 23347,12149 23416,12118 23447,12015 23489,12015 23489,12127 23629,12127 23629,12184 23489,12184 23489,12467 C 23489,12496 23496,12518 23510,12534 23523,12549 23542,12557 23566,12557 Z"/>
    </g>
   </g>
   <g class="com.sun.star.drawing.ClosedBezierShape">
    <g id="id27">
     <rect class="BoundingBox" stroke="none" fill="none" x="23722" y="12127" width="405" height="492"/>
     <path fill="rgb(21,132,102)" stroke="none" d="M 23797,12127 L 23797,12439 C 23797,12479 23806,12508 23823,12527 23841,12547 23869,12556 23907,12556 23958,12556 23995,12542 24018,12515 24041,12487 24053,12442 24053,12380 L 24053,12127 24126,12127 24126,12608 24066,12608 24055,12544 24051,12544 C 24036,12568 24015,12586 23989,12598 23962,12611 23932,12617 23898,12617 23840,12617 23796,12603 23767,12576 23737,12548 23723,12503 23723,12442 L 23723,12127 23797,12127 Z"/>
    </g>
   </g>
   <g class="com.sun.star.drawing.ClosedBezierShape">
    <g id="id28">
     <rect class="BoundingBox" stroke="none" fill="none" x="24252" y="11925" width="425" height="694"/>
     <path fill="rgb(21,132,102)" stroke="none" d="M 24607,12544 L 24603,12544 C 24569,12593 24519,12617 24452,12617 24389,12617 24340,12596 24305,12553 24270,12510 24252,12448 24252,12369 24252,12290 24270,12228 24305,12184 24340,12140 24389,12118 24452,12118 24517,12118 24567,12142 24602,12190 L 24608,12190 24605,12155 24603,12121 24603,11925 24676,11925 24676,12608 24617,12608 24607,12544 Z M 24461,12556 C 24511,12556 24547,12543 24569,12516 24592,12489 24603,12445 24603,12385 L 24603,12369 C 24603,12301 24592,12252 24569,12223 24546,12194 24510,12179 24460,12179 24418,12179 24385,12196 24362,12229 24339,12263 24328,12309 24328,12370 24328,12432 24339,12478 24362,12509 24384,12541 24418,12556 24461,12556 Z"/>
    </g>
   </g>
   <g class="com.sun.star.drawing.ClosedBezierShape">
    <g id="id29">
     <rect class="BoundingBox" stroke="none" fill="none" x="24795" y="12119" width="388" height="500"/>
     <path fill="rgb(21,132,102)" stroke="none" d="M 25128,12608 L 25113,12540 25110,12540 C 25086,12570 25062,12591 25038,12601 25014,12612 24984,12617 24949,12617 24901,12617 24864,12605 24836,12580 24809,12556 24796,12521 24796,12475 24796,12378 24874,12327 25029,12323 L 25111,12320 25111,12290 C 25111,12252 25103,12224 25086,12206 25070,12188 25044,12179 25008,12179 24968,12179 24923,12192 24872,12216 L 24850,12161 C 24874,12148 24900,12138 24928,12130 24956,12123 24984,12119 25013,12119 25070,12119 25113,12132 25140,12157 25168,12183 25182,12224 25182,12280 L 25182,12608 25128,12608 Z M 24963,12557 C 25009,12557 25044,12545 25070,12520 25096,12495 25109,12460 25109,12415 L 25109,12372 25036,12375 C 24978,12377 24936,12386 24911,12402 24885,12418 24872,12443 24872,12476 24872,12503 24880,12523 24896,12536 24912,12550 24934,12557 24963,12557 Z"/>
    </g>
   </g>
   <g class="com.sun.star.drawing.ClosedBezierShape">
    <g id="id30">
     <rect class="BoundingBox" stroke="none" fill="none" x="25329" y="12118" width="404" height="492"/>
     <path fill="rgb(21,132,102)" stroke="none" d="M 25659,12609 L 25659,12297 C 25659,12258 25650,12229 25632,12209 25614,12190 25586,12180 25548,12180 25498,12180 25461,12194 25437,12221 25414,12249 25402,12294 25402,12356 L 25402,12609 25329,12609 25329,12127 25388,12127 25400,12193 25404,12193 C 25419,12169 25440,12151 25467,12138 25494,12125 25524,12119 25557,12119 25615,12119 25658,12133 25688,12160 25717,12188 25732,12233 25732,12295 L 25732,12609 25659,12609 Z"/>
    </g>
   </g>
   <g class="com.sun.star.drawing.ClosedBezierShape">
    <g id="id31">
     <rect class="BoundingBox" stroke="none" fill="none" x="25818" y="12015" width="287" height="604"/>
     <path fill="rgb(21,132,102)" stroke="none" d="M 26037,12557 C 26050,12557 26063,12556 26075,12554 26087,12552 26096,12550 26103,12548 L 26103,12604 C 26095,12608 26084,12611 26068,12614 26053,12616 26039,12617 26027,12617 25934,12617 25887,12568 25887,12470 L 25887,12184 25818,12184 25818,12149 25887,12118 25918,12015 25960,12015 25960,12127 26100,12127 26100,12184 25960,12184 25960,12467 C 25960,12496 25967,12518 25981,12534 25994,12549 26013,12557 26037,12557 Z"/>
    </g>
   </g>
   <g class="com.sun.star.drawing.ClosedBezierShape">
    <g id="id32">
     <rect class="BoundingBox" stroke="none" fill="none" x="26192" y="11948" width="89" height="662"/>
     <path fill="rgb(21,132,102)" stroke="none" d="M 26272,12609 L 26199,12609 26199,12127 26272,12127 26272,12609 Z M 26193,11997 C 26193,11980 26197,11968 26205,11960 26213,11952 26224,11949 26236,11949 26248,11949 26258,11952 26266,11960 26275,11968 26279,11980 26279,11997 26279,12013 26275,12025 26266,12034 26258,12042 26248,12046 26236,12046 26224,12046 26213,12042 26205,12034 26197,12025 26193,12013 26193,11997 Z"/>
    </g>
   </g>
   <g class="com.sun.star.drawing.ClosedBezierShape">
    <g id="id33">
     <rect class="BoundingBox" stroke="none" fill="none" x="26427" y="11925" width="75" height="685"/>
     <path fill="rgb(21,132,102)" stroke="none" d="M 26500,12609 C 26476,12609 26452,12609 26427,12609 26427,12381 26427,12153 26427,11925 26452,11925 26476,11925 26500,11925 26500,12153 26500,12381 26500,12609 Z"/>
    </g>
   </g>
  </g>
 </g>
</svg>